# xmcd
#
# Track frame offsets:
#	150
#	11844
#	23952
#	36757
#	52427
#	67232
#	89255
#	100841
#	133530
#	151134
#	163343
#	177922
#
# Disc length: 2590 seconds
#
# Revision: 1
# Processed by: cddbd v1.4PL0 Copyright (c) Steve Scherf et al.
# Submitted via: audiograbber 1.81.01
#
DISCID=a60a1c0c
DTITLE=Nada - I Grandi Successi Originali cd2
DYEAR=1900
DGENRE=Pop
TTITLE0=Il rè di denari
TTITLE1=Bugia
TTITLE2=Io lò fatto per amore
TTITLE3=Male d'amore
TTITLE4=E dolce dare la buonanotte
TTITLE5=Confiteor
TTITLE6=L'anello
TTITLE7=Esisto anch'io
TTITLE8=Sul porto di Livorno
TTITLE9=La fisarmonica di stradella
TTITLE10=Il domatore delle scimmie
TTITLE11=L'amore e tutto qui
EXTD=
EXTT0=
EXTT1=
EXTT2=
EXTT3=
EXTT4=
EXTT5=
EXTT6=
EXTT7=
EXTT8=
EXTT9=
EXTT10=
EXTT11=
PLAYORDER=
